<?xml version="1.0" encoding="UTF-8" standalone="no"?>
<!DOCTYPE svg PUBLIC "-//W3C//DTD SVG 1.1//EN"
 "http://www.w3.org/Graphics/SVG/1.1/DTD/svg11.dtd">
<!-- Generated by graphviz version 2.30.1 (20130405.0426)
 -->
<!-- Title: G Pages: 1 -->
<svg width="1824pt" height="320pt"
 viewBox="0.00 0.00 1824.00 320.00" xmlns="http://www.w3.org/2000/svg" xmlns:xlink="http://www.w3.org/1999/xlink">
<g id="graph0" class="graph" transform="scale(1 1) rotate(0) translate(4 316)">
<title>G</title>
<polygon fill="white" stroke="white" points="-4,5 -4,-316 1821,-316 1821,5 -4,5"/>
<g id="clust1" class="cluster"><title>cluster_org_eclipse_jdt_internal_junit_runner</title>
<polygon fill="none" stroke="black" points="82,-64 82,-199 337,-199 337,-64 82,-64"/>
<text text-anchor="middle" x="209.5" y="-183.8" font-family="Helvetica,sans-Serif" font-size="14.00">org.eclipse.jdt.internal.junit.runner</text>
</g>
<g id="clust2" class="cluster"><title>cluster_com_directedgraphbuilder</title>
<polygon fill="none" stroke="black" points="1128,-168 1128,-304 1808,-304 1808,-168 1128,-168"/>
<text text-anchor="middle" x="1468" y="-288.8" font-family="Helvetica,sans-Serif" font-size="14.00">com.directedgraphbuilder</text>
</g>
<g id="clust3" class="cluster"><title>cluster_org_junit_internal_runners</title>
<polygon fill="none" stroke="black" points="640,-8 640,-275 1108,-275 1108,-8 640,-8"/>
<text text-anchor="middle" x="874" y="-259.8" font-family="Helvetica,sans-Serif" font-size="14.00">org.junit.internal.runners</text>
</g>
<g id="clust4" class="cluster"><title>cluster_org_eclipse_jdt_internal_junit4_runner</title>
<polygon fill="none" stroke="black" points="357,-83 357,-162 620,-162 620,-83 357,-83"/>
<text text-anchor="middle" x="488.5" y="-146.8" font-family="Helvetica,sans-Serif" font-size="14.00">org.eclipse.jdt.internal.junit4.runner</text>
</g>
<!-- org_eclipse_jdt_internal_junit_runner_RemoteTestRunner -->
<g id="node1" class="node"><title>org_eclipse_jdt_internal_junit_runner_RemoteTestRunner</title>
<polygon fill="#ffc2ff" stroke="black" points="95.5,-73 95.5,-149 202.5,-149 202.5,-73 95.5,-73"/>
<text text-anchor="middle" x="149" y="-137" font-family="Helvetica,sans-Serif" font-size="10.00">RemoteTestRunner</text>
<polyline fill="none" stroke="black" points="95.5,-130 202.5,-130 "/>
<text text-anchor="middle" x="149" y="-118" font-family="Helvetica,sans-Serif" font-size="10.00">main</text>
<polyline fill="none" stroke="black" points="95.5,-111 202.5,-111 "/>
<text text-anchor="middle" x="149" y="-99" font-family="Helvetica,sans-Serif" font-size="10.00">run</text>
<polyline fill="none" stroke="black" points="95.5,-92 202.5,-92 "/>
<text text-anchor="middle" x="149" y="-80" font-family="Helvetica,sans-Serif" font-size="10.00">runTests</text>
</g>
<!-- org_eclipse_jdt_internal_junit_runner_TestExecution -->
<g id="node2" class="node"><title>org_eclipse_jdt_internal_junit_runner_TestExecution</title>
<polygon fill="#ffc2ff" stroke="black" points="239,-92 239,-130 323,-130 323,-92 239,-92"/>
<text text-anchor="middle" x="281" y="-118" font-family="Helvetica,sans-Serif" font-size="10.00">TestExecution</text>
<polyline fill="none" stroke="black" points="239,-111 323,-111 "/>
<text text-anchor="middle" x="281" y="-99" font-family="Helvetica,sans-Serif" font-size="10.00">run</text>
</g>
<!-- org_eclipse_jdt_internal_junit_runner_RemoteTestRunner&#45;&gt;org_eclipse_jdt_internal_junit_runner_TestExecution -->
<g id="edge20" class="edge"><title>org_eclipse_jdt_internal_junit_runner_RemoteTestRunner&#45;&gt;org_eclipse_jdt_internal_junit_runner_TestExecution</title>
<path fill="none" stroke="#b25f93" d="M202.501,-111C211.118,-111 220.04,-111 228.629,-111"/>
<polygon fill="#b25f93" stroke="#b25f93" points="228.898,-114.5 238.898,-111 228.898,-107.5 228.898,-114.5"/>
</g>
<!-- org_eclipse_jdt_internal_junit_runner_RemoteTestRunner&#45;&gt;org_eclipse_jdt_internal_junit_runner_RemoteTestRunner -->
<g id="edge21" class="edge"><title>org_eclipse_jdt_internal_junit_runner_RemoteTestRunner&#45;&gt;org_eclipse_jdt_internal_junit_runner_RemoteTestRunner</title>
<path fill="none" stroke="#b25f93" d="M126.326,-149.214C127.622,-159.335 135.18,-167 149,-167 158.07,-167 164.442,-163.699 168.118,-158.569"/>
<polygon fill="#b25f93" stroke="#b25f93" points="171.392,-159.805 171.674,-149.214 164.849,-157.318 171.392,-159.805"/>
</g>
<!-- org_eclipse_jdt_internal_junit4_runner_JUnit4TestReference -->
<g id="node14" class="node"><title>org_eclipse_jdt_internal_junit4_runner_JUnit4TestReference</title>
<polygon fill="#76ff82" stroke="black" points="430.5,-92 430.5,-130 545.5,-130 545.5,-92 430.5,-92"/>
<text text-anchor="middle" x="488" y="-118" font-family="Helvetica,sans-Serif" font-size="10.00">JUnit4TestReference</text>
<polyline fill="none" stroke="black" points="430.5,-111 545.5,-111 "/>
<text text-anchor="middle" x="488" y="-99" font-family="Helvetica,sans-Serif" font-size="10.00">run</text>
</g>
<!-- org_eclipse_jdt_internal_junit_runner_TestExecution&#45;&gt;org_eclipse_jdt_internal_junit4_runner_JUnit4TestReference -->
<g id="edge13" class="edge"><title>org_eclipse_jdt_internal_junit_runner_TestExecution&#45;&gt;org_eclipse_jdt_internal_junit4_runner_JUnit4TestReference</title>
<path fill="none" stroke="#b25f93" d="M323.485,-111C351.25,-111 388.406,-111 420.282,-111"/>
<polygon fill="#b25f93" stroke="#b25f93" points="420.427,-114.5 430.427,-111 420.427,-107.5 420.427,-114.5"/>
</g>
<!-- com_directedgraphbuilder_CallGraphBuilderTest -->
<g id="node3" class="node"><title>com_directedgraphbuilder_CallGraphBuilderTest</title>
<polygon fill="#ffc87f" stroke="black" points="1136.5,-205 1136.5,-243 1251.5,-243 1251.5,-205 1136.5,-205"/>
<text text-anchor="middle" x="1194" y="-231" font-family="Helvetica,sans-Serif" font-size="10.00">CallGraphBuilderTest</text>
<polyline fill="none" stroke="black" points="1136.5,-224 1251.5,-224 "/>
<text text-anchor="middle" x="1194" y="-212" font-family="Helvetica,sans-Serif" font-size="10.00">twoCallTest</text>
</g>
<!-- com_directedgraphbuilder_CallGraphBuilderTest_TestClass1 -->
<g id="node4" class="node"><title>com_directedgraphbuilder_CallGraphBuilderTest_TestClass1</title>
<polygon fill="#ffc87f" stroke="black" points="1288,-177 1288,-215 1460,-215 1460,-177 1288,-177"/>
<text text-anchor="middle" x="1374" y="-203" font-family="Helvetica,sans-Serif" font-size="10.00">CallGraphBuilderTest_TestClass1</text>
<polyline fill="none" stroke="black" points="1288,-196 1460,-196 "/>
<text text-anchor="middle" x="1374" y="-184" font-family="Helvetica,sans-Serif" font-size="10.00">method</text>
</g>
<!-- com_directedgraphbuilder_CallGraphBuilderTest&#45;&gt;com_directedgraphbuilder_CallGraphBuilderTest_TestClass1 -->
<g id="edge6" class="edge"><title>com_directedgraphbuilder_CallGraphBuilderTest&#45;&gt;com_directedgraphbuilder_CallGraphBuilderTest_TestClass1</title>
<path fill="none" stroke="#81623e" d="M1251.81,-215.064C1260.16,-213.75 1268.95,-212.367 1277.83,-210.971"/>
<polygon fill="#81623e" stroke="#81623e" points="1278.53,-214.404 1287.86,-209.393 1277.44,-207.489 1278.53,-214.404"/>
</g>
<!-- com_directedgraphbuilder_CallGraphBuilderTest_TestClass2 -->
<g id="node7" class="node"><title>com_directedgraphbuilder_CallGraphBuilderTest_TestClass2</title>
<polygon fill="#ffc87f" stroke="black" points="1288,-234 1288,-272 1460,-272 1460,-234 1288,-234"/>
<text text-anchor="middle" x="1374" y="-260" font-family="Helvetica,sans-Serif" font-size="10.00">CallGraphBuilderTest_TestClass2</text>
<polyline fill="none" stroke="black" points="1288,-253 1460,-253 "/>
<text text-anchor="middle" x="1374" y="-241" font-family="Helvetica,sans-Serif" font-size="10.00">method</text>
</g>
<!-- com_directedgraphbuilder_CallGraphBuilderTest&#45;&gt;com_directedgraphbuilder_CallGraphBuilderTest_TestClass2 -->
<g id="edge7" class="edge"><title>com_directedgraphbuilder_CallGraphBuilderTest&#45;&gt;com_directedgraphbuilder_CallGraphBuilderTest_TestClass2</title>
<path fill="none" stroke="#81623e" d="M1251.81,-233.256C1260.16,-234.616 1268.95,-236.049 1277.83,-237.494"/>
<polygon fill="#81623e" stroke="#81623e" points="1277.43,-240.975 1287.86,-239.129 1278.55,-234.066 1277.43,-240.975"/>
</g>
<!-- com_directedgraphbuilder_CallGraphBuilderTest_Destination -->
<g id="node5" class="node"><title>com_directedgraphbuilder_CallGraphBuilderTest_Destination</title>
<polygon fill="#ffc87f" stroke="black" points="1496.5,-205 1496.5,-243 1669.5,-243 1669.5,-205 1496.5,-205"/>
<text text-anchor="middle" x="1583" y="-231" font-family="Helvetica,sans-Serif" font-size="10.00">CallGraphBuilderTest_Destination</text>
<polyline fill="none" stroke="black" points="1496.5,-224 1669.5,-224 "/>
<text text-anchor="middle" x="1583" y="-212" font-family="Helvetica,sans-Serif" font-size="10.00">destinationMethod</text>
</g>
<!-- com_directedgraphbuilder_CallGraphBuilderTest_TestClass1&#45;&gt;com_directedgraphbuilder_CallGraphBuilderTest_Destination -->
<g id="edge9" class="edge"><title>com_directedgraphbuilder_CallGraphBuilderTest_TestClass1&#45;&gt;com_directedgraphbuilder_CallGraphBuilderTest_Destination</title>
<path fill="none" stroke="#81623e" d="M1460.09,-207.51C1468.67,-208.67 1477.42,-209.853 1486.1,-211.027"/>
<polygon fill="#81623e" stroke="#81623e" points="1485.86,-214.527 1496.24,-212.399 1486.79,-207.59 1485.86,-214.527"/>
</g>
<!-- com_directedgraphbuilder_CallGraphBuilder -->
<g id="node6" class="node"><title>com_directedgraphbuilder_CallGraphBuilder</title>
<polygon fill="#ffc87f" stroke="black" points="1706,-205 1706,-243 1800,-243 1800,-205 1706,-205"/>
<text text-anchor="middle" x="1753" y="-231" font-family="Helvetica,sans-Serif" font-size="10.00">CallGraphBuilder</text>
<polyline fill="none" stroke="black" points="1706,-224 1800,-224 "/>
<text text-anchor="middle" x="1753" y="-212" font-family="Helvetica,sans-Serif" font-size="10.00">capture</text>
</g>
<!-- com_directedgraphbuilder_CallGraphBuilderTest_Destination&#45;&gt;com_directedgraphbuilder_CallGraphBuilder -->
<g id="edge16" class="edge"><title>com_directedgraphbuilder_CallGraphBuilderTest_Destination&#45;&gt;com_directedgraphbuilder_CallGraphBuilder</title>
<path fill="none" stroke="#81623e" d="M1669.97,-224C1678.6,-224 1687.2,-224 1695.41,-224"/>
<polygon fill="#81623e" stroke="#81623e" points="1695.57,-227.5 1705.57,-224 1695.56,-220.5 1695.57,-227.5"/>
</g>
<!-- com_directedgraphbuilder_CallGraphBuilderTest_TestClass2&#45;&gt;com_directedgraphbuilder_CallGraphBuilderTest_Destination -->
<g id="edge10" class="edge"><title>com_directedgraphbuilder_CallGraphBuilderTest_TestClass2&#45;&gt;com_directedgraphbuilder_CallGraphBuilderTest_Destination</title>
<path fill="none" stroke="#81623e" d="M1460.09,-241.079C1468.67,-239.878 1477.42,-238.652 1486.1,-237.436"/>
<polygon fill="#81623e" stroke="#81623e" points="1486.82,-240.869 1496.24,-236.015 1485.85,-233.937 1486.82,-240.869"/>
</g>
<!-- org_junit_internal_runners_JUnit4ClassRunner -->
<g id="node8" class="node"><title>org_junit_internal_runners_JUnit4ClassRunner</title>
<polygon fill="#627c87" stroke="black" points="648,-73 648,-149 752,-149 752,-73 648,-73"/>
<text text-anchor="middle" x="700" y="-137" font-family="Helvetica,sans-Serif" font-size="10.00">JUnit4ClassRunner</text>
<polyline fill="none" stroke="black" points="648,-130 752,-130 "/>
<text text-anchor="middle" x="700" y="-118" font-family="Helvetica,sans-Serif" font-size="10.00">run</text>
<polyline fill="none" stroke="black" points="648,-111 752,-111 "/>
<text text-anchor="middle" x="700" y="-99" font-family="Helvetica,sans-Serif" font-size="10.00">runMethods</text>
<polyline fill="none" stroke="black" points="648,-92 752,-92 "/>
<text text-anchor="middle" x="700" y="-80" font-family="Helvetica,sans-Serif" font-size="10.00">invokeTestMethod</text>
</g>
<!-- org_junit_internal_runners_ClassRoadie -->
<g id="node9" class="node"><title>org_junit_internal_runners_ClassRoadie</title>
<polygon fill="#627c87" stroke="black" points="824.5,-16.5 824.5,-73.5 913.5,-73.5 913.5,-16.5 824.5,-16.5"/>
<text text-anchor="middle" x="869" y="-61.5" font-family="Helvetica,sans-Serif" font-size="10.00">ClassRoadie</text>
<polyline fill="none" stroke="black" points="824.5,-54.5 913.5,-54.5 "/>
<text text-anchor="middle" x="869" y="-42.5" font-family="Helvetica,sans-Serif" font-size="10.00">runProtected</text>
<polyline fill="none" stroke="black" points="824.5,-35.5 913.5,-35.5 "/>
<text text-anchor="middle" x="869" y="-23.5" font-family="Helvetica,sans-Serif" font-size="10.00">runUnprotected</text>
</g>
<!-- org_junit_internal_runners_JUnit4ClassRunner&#45;&gt;org_junit_internal_runners_ClassRoadie -->
<g id="edge17" class="edge"><title>org_junit_internal_runners_JUnit4ClassRunner&#45;&gt;org_junit_internal_runners_ClassRoadie</title>
<path fill="none" stroke="#303c42" d="M752.013,-90.8392C771.969,-82.9522 794.859,-73.906 815.003,-65.945"/>
<polygon fill="#303c42" stroke="#303c42" points="816.331,-69.1837 824.344,-62.2532 813.758,-62.6737 816.331,-69.1837"/>
</g>
<!-- org_junit_internal_runners_MethodRoadie -->
<g id="node11" class="node"><title>org_junit_internal_runners_MethodRoadie</title>
<polygon fill="#627c87" stroke="black" points="788.5,-130.5 788.5,-225.5 949.5,-225.5 949.5,-130.5 788.5,-130.5"/>
<text text-anchor="middle" x="869" y="-213.5" font-family="Helvetica,sans-Serif" font-size="10.00">MethodRoadie</text>
<polyline fill="none" stroke="black" points="788.5,-206.5 949.5,-206.5 "/>
<text text-anchor="middle" x="869" y="-194.5" font-family="Helvetica,sans-Serif" font-size="10.00">run</text>
<polyline fill="none" stroke="black" points="788.5,-187.5 949.5,-187.5 "/>
<text text-anchor="middle" x="869" y="-175.5" font-family="Helvetica,sans-Serif" font-size="10.00">runTest</text>
<polyline fill="none" stroke="black" points="788.5,-168.5 949.5,-168.5 "/>
<text text-anchor="middle" x="869" y="-156.5" font-family="Helvetica,sans-Serif" font-size="10.00">runBeforesThenTestThenAfters</text>
<polyline fill="none" stroke="black" points="788.5,-149.5 949.5,-149.5 "/>
<text text-anchor="middle" x="869" y="-137.5" font-family="Helvetica,sans-Serif" font-size="10.00">runTestMethod</text>
</g>
<!-- org_junit_internal_runners_JUnit4ClassRunner&#45;&gt;org_junit_internal_runners_MethodRoadie -->
<g id="edge18" class="edge"><title>org_junit_internal_runners_JUnit4ClassRunner&#45;&gt;org_junit_internal_runners_MethodRoadie</title>
<path fill="none" stroke="#303c42" d="M752.013,-131.466C760.646,-134.93 769.828,-138.613 779.099,-142.333"/>
<polygon fill="#303c42" stroke="#303c42" points="777.798,-145.582 788.382,-146.058 780.405,-139.086 777.798,-145.582"/>
</g>
<!-- org_junit_internal_runners_JUnit4ClassRunner&#45;&gt;org_junit_internal_runners_JUnit4ClassRunner -->
<g id="edge19" class="edge"><title>org_junit_internal_runners_JUnit4ClassRunner&#45;&gt;org_junit_internal_runners_JUnit4ClassRunner</title>
<path fill="none" stroke="#303c42" d="M668.777,-149.214C670.561,-159.335 680.969,-167 700,-167 712.787,-167 721.68,-163.54 726.681,-158.199"/>
<polygon fill="#303c42" stroke="#303c42" points="729.836,-159.718 731.223,-149.214 723.588,-156.56 729.836,-159.718"/>
</g>
<!-- org_junit_internal_runners_ClassRoadie&#45;&gt;org_junit_internal_runners_ClassRoadie -->
<g id="edge1" class="edge"><title>org_junit_internal_runners_ClassRoadie&#45;&gt;org_junit_internal_runners_ClassRoadie</title>
<path fill="none" stroke="#303c42" d="M837.508,-73.9146C837.174,-83.92 847.672,-92 869,-92 882.997,-92 892.329,-88.5202 896.997,-83.3001"/>
<polygon fill="#303c42" stroke="#303c42" points="900.282,-84.5074 900.492,-73.9146 893.722,-82.0641 900.282,-84.5074"/>
</g>
<!-- org_junit_internal_runners_JUnit4ClassRunner_1 -->
<g id="node10" class="node"><title>org_junit_internal_runners_JUnit4ClassRunner_1</title>
<polygon fill="#627c87" stroke="black" points="986,-58 986,-96 1100,-96 1100,-58 986,-58"/>
<text text-anchor="middle" x="1043" y="-84" font-family="Helvetica,sans-Serif" font-size="10.00">JUnit4ClassRunner_1</text>
<polyline fill="none" stroke="black" points="986,-77 1100,-77 "/>
<text text-anchor="middle" x="1043" y="-65" font-family="Helvetica,sans-Serif" font-size="10.00">run</text>
</g>
<!-- org_junit_internal_runners_ClassRoadie&#45;&gt;org_junit_internal_runners_JUnit4ClassRunner_1 -->
<g id="edge2" class="edge"><title>org_junit_internal_runners_ClassRoadie&#45;&gt;org_junit_internal_runners_JUnit4ClassRunner_1</title>
<path fill="none" stroke="#303c42" d="M913.848,-53.1577C932.665,-56.6587 955.06,-60.8251 975.824,-64.6881"/>
<polygon fill="#303c42" stroke="#303c42" points="975.391,-68.1677 985.863,-66.5559 976.672,-61.2858 975.391,-68.1677"/>
</g>
<!-- org_junit_internal_runners_JUnit4ClassRunner_1&#45;&gt;org_junit_internal_runners_JUnit4ClassRunner -->
<g id="edge14" class="edge"><title>org_junit_internal_runners_JUnit4ClassRunner_1&#45;&gt;org_junit_internal_runners_JUnit4ClassRunner</title>
<path fill="none" stroke="#303c42" d="M985.957,-93.6626C974.176,-96.588 961.756,-99.2514 950,-101 886.544,-110.439 813.057,-112.298 762.45,-112.192"/>
<polygon fill="#303c42" stroke="#303c42" points="762.344,-108.691 752.327,-112.144 762.311,-115.691 762.344,-108.691"/>
</g>
<!-- org_junit_internal_runners_MethodRoadie&#45;&gt;org_junit_internal_runners_MethodRoadie -->
<g id="edge3" class="edge"><title>org_junit_internal_runners_MethodRoadie&#45;&gt;org_junit_internal_runners_MethodRoadie</title>
<path fill="none" stroke="#303c42" d="M838.348,-225.759C841.228,-236.313 851.445,-244 869,-244 881.069,-244 889.67,-240.367 894.802,-234.666"/>
<polygon fill="#303c42" stroke="#303c42" points="897.944,-236.215 899.652,-225.759 891.796,-232.868 897.944,-236.215"/>
</g>
<!-- org_junit_internal_runners_MethodRoadie_2 -->
<g id="node12" class="node"><title>org_junit_internal_runners_MethodRoadie_2</title>
<polygon fill="#627c87" stroke="black" points="995.5,-148 995.5,-186 1090.5,-186 1090.5,-148 995.5,-148"/>
<text text-anchor="middle" x="1043" y="-174" font-family="Helvetica,sans-Serif" font-size="10.00">MethodRoadie_2</text>
<polyline fill="none" stroke="black" points="995.5,-167 1090.5,-167 "/>
<text text-anchor="middle" x="1043" y="-155" font-family="Helvetica,sans-Serif" font-size="10.00">run</text>
</g>
<!-- org_junit_internal_runners_MethodRoadie&#45;&gt;org_junit_internal_runners_MethodRoadie_2 -->
<g id="edge4" class="edge"><title>org_junit_internal_runners_MethodRoadie&#45;&gt;org_junit_internal_runners_MethodRoadie_2</title>
<path fill="none" stroke="#303c42" d="M949.706,-166.169C961.682,-165.341 973.821,-164.679 985.189,-164.241"/>
<polygon fill="#303c42" stroke="#303c42" points="985.505,-167.733 995.384,-163.904 985.274,-160.737 985.505,-167.733"/>
</g>
<!-- org_junit_internal_runners_TestMethod -->
<g id="node13" class="node"><title>org_junit_internal_runners_TestMethod</title>
<polygon fill="#627c87" stroke="black" points="1006.5,-205 1006.5,-243 1079.5,-243 1079.5,-205 1006.5,-205"/>
<text text-anchor="middle" x="1043" y="-231" font-family="Helvetica,sans-Serif" font-size="10.00">TestMethod</text>
<polyline fill="none" stroke="black" points="1006.5,-224 1079.5,-224 "/>
<text text-anchor="middle" x="1043" y="-212" font-family="Helvetica,sans-Serif" font-size="10.00">invoke</text>
</g>
<!-- org_junit_internal_runners_MethodRoadie&#45;&gt;org_junit_internal_runners_TestMethod -->
<g id="edge5" class="edge"><title>org_junit_internal_runners_MethodRoadie&#45;&gt;org_junit_internal_runners_TestMethod</title>
<path fill="none" stroke="#303c42" d="M949.706,-199.317C965.687,-203.591 981.959,-207.943 996.3,-211.778"/>
<polygon fill="#303c42" stroke="#303c42" points="995.804,-215.268 1006.37,-214.471 997.613,-208.506 995.804,-215.268"/>
</g>
<!-- org_junit_internal_runners_MethodRoadie_2&#45;&gt;org_junit_internal_runners_MethodRoadie -->
<g id="edge11" class="edge"><title>org_junit_internal_runners_MethodRoadie_2&#45;&gt;org_junit_internal_runners_MethodRoadie</title>
<path fill="none" stroke="#303c42" d="M995.384,-176.058C984.357,-177.168 972.227,-178.166 959.989,-178.988"/>
<polygon fill="#303c42" stroke="#303c42" points="959.466,-175.514 949.706,-179.636 959.907,-182.5 959.466,-175.514"/>
</g>
<!-- org_junit_internal_runners_TestMethod&#45;&gt;com_directedgraphbuilder_CallGraphBuilderTest -->
<g id="edge8" class="edge"><title>org_junit_internal_runners_TestMethod&#45;&gt;com_directedgraphbuilder_CallGraphBuilderTest</title>
<path fill="none" stroke="#303c42" d="M1079.69,-224C1093.6,-224 1110.02,-224 1125.98,-224"/>
<polygon fill="#303c42" stroke="#303c42" points="1126.36,-227.5 1136.36,-224 1126.36,-220.5 1126.36,-227.5"/>
</g>
<!-- org_eclipse_jdt_internal_junit4_runner_JUnit4TestReference&#45;&gt;org_junit_internal_runners_JUnit4ClassRunner -->
<g id="edge15" class="edge"><title>org_eclipse_jdt_internal_junit4_runner_JUnit4TestReference&#45;&gt;org_junit_internal_runners_JUnit4ClassRunner</title>
<path fill="none" stroke="#3a893f" d="M545.552,-111C574.024,-111 608.582,-111 637.689,-111"/>
<polygon fill="#3a893f" stroke="#3a893f" points="637.738,-114.5 647.738,-111 637.738,-107.5 637.738,-114.5"/>
</g>
<!-- start -->
<g id="node15" class="node"><title>start</title>
<polygon fill="#b6b6b6" stroke="black" points="0,-93 0,-129 54,-129 54,-93 0,-93"/>
<text text-anchor="middle" x="27" y="-114" font-family="Helvetica,sans-Serif" font-size="10.00">START</text>
<text text-anchor="middle" x="27" y="-103" font-family="Helvetica,sans-Serif" font-size="10.00">main</text>
</g>
<!-- start&#45;&gt;org_eclipse_jdt_internal_junit_runner_RemoteTestRunner -->
<g id="edge12" class="edge"><title>start&#45;&gt;org_eclipse_jdt_internal_junit_runner_RemoteTestRunner</title>
<path fill="none" stroke="#595959" d="M54.0382,-111C63.3267,-111 74.2344,-111 85.2656,-111"/>
<polygon fill="#595959" stroke="#595959" points="85.3881,-114.5 95.3881,-111 85.388,-107.5 85.3881,-114.5"/>
</g>
</g>
</svg>
